<?xml version="1.0" encoding="UTF-8"?>
<svg id="Layer_2" data-name="Layer 2" xmlns="http://www.w3.org/2000/svg" viewBox="0 0 1258.54 573.53">
  <defs>
    <style>
      .cls-1 {
        fill: #00182c;
        stroke-width: 0px;
      }
    </style>
  </defs>
  <g id="Layer_1-2" data-name="Layer 1">
    <g>
      <polygon class="cls-1" points="307.85 5.16 589.18 570.5 675.48 396.64 468.06 1.29 307.85 5.16"/>
      <polygon class="cls-1" points="0 0 265.17 573.1 356.37 401.75 160.26 .67 0 0"/>
      <polygon class="cls-1" points="1109.8 .77 863.66 343.5 863.66 573.53 1012.4 573.53 1012.4 343.5 1258.54 .77 1109.8 .77"/>
      <path class="cls-1" d="m632.9,0c19.4,16.4,37.45,33.87,54.05,52.55,16.6,18.68,30.77,36.14,42.53,52.5,13.79,18.92,26.61,37.84,38.37,56.76,3.58-21.97,9.44-43.21,17.61-63.63,7.16-17.37,16.89-35.18,29.13-53.32,12.29-18.15,28.35-33.1,48.29-44.85h-229.98Z"/>
    </g>
  </g>
</svg>